<svg xmlns="http://www.w3.org/2000/svg" fill-rule="evenodd" viewBox="0 0 100 100">
    <path d="m84.362 92.304-11.5-23c-.6-1.1-.7-1.4-1-2l-14.3-28.5v-21.3h6.2c.8 0 1.5-.7 1.5-1.5v-7.7c0-.8-.7-1.5-1.5-1.5h-30.8c-.8 0-1.5.7-1.5 1.5v7.7c0 .8.7 1.5 1.5 1.5h6.2v21.2l-14.3 28.6c-.3.6-.5 1.1-1 2l-11.5 23c-.2.5-.2 1 .1 1.5.3.5.8.7 1.3.7h69.3c.5 0 1-.3 1.3-.7.3-.4.2-1 0-1.5Zm-42.4-52.5c.1-.2.2-.4.2-.7v-23.1c0-.8-.7-1.5-1.5-1.5h-6.2v-4.7h27.8v4.7h-6.2c-.8 0-1.5.7-1.5 1.5v23.1c0 .2.1.5.2.7l14.1 28.1c-.5.3-.8.6-1.2.8-.6.5-1 .8-2 .8s-1.3-.3-2-.8c-.8-.6-1.9-1.5-3.8-1.5-2 0-3 .9-3.8 1.5-.6.5-1 .8-1.9.8-.9 0-1.3-.3-1.9-.8-.8-.6-1.9-1.5-3.8-1.5-2 0-3 .9-3.8 1.5-.6.5-1 .8-1.9.8-.9 0-1.3-.3-1.9-.8-.8-.6-1.9-1.5-3.8-1.5s-3 .9-3.8 1.5c-.6.5-1 .8-1.9.8-.9 0-1.3-.3-1.9-.8-.3-.3-.7-.6-1.2-.8l13.7-28.1Zm-25.8 51.7 10.4-20.9c.2.1.4.3.6.5.8.6 1.9 1.5 3.8 1.5 2 0 3-.9 3.8-1.5.6-.5 1-.8 1.9-.8.9 0 1.3.3 1.9.8.8.6 1.9 1.5 3.8 1.5s3-.9 3.8-1.5c.6-.5 1-.8 1.9-.8.9 0 1.3.3 1.9.8.8.6 1.9 1.5 3.8 1.5 2 0 3-.9 3.8-1.5.6-.5 1-.8 1.9-.8.9 0 1.3.3 2 .8.8.6 1.9 1.5 3.8 1.5s3-.9 3.8-1.5c.2-.2.4-.3.6-.5l10.4 20.9h-63.9Z"/>
</svg>
