<svg xmlns="http://www.w3.org/2000/svg" fill-rule="evenodd" viewBox="0 0 100 100">
    <path d="M97.197 40.597A1.499 1.499 0 0 0 96 40h-8.5v-9.327a1.5 1.5 0 0 0-1.498-1.5l-44.407-.055-7.179-7.179a1.5 1.5 0 0 0-1.061-.439H12a1.5 1.5 0 0 0-1.5 1.5v54a1.5 1.5 0 0 0 1.5 1.5h73.795c.731 0 1.339-.525 1.472-1.218.071-.115.137-.234.176-.37l10-35a1.503 1.503 0 0 0-.246-1.315zM32.734 24.5l7.178 7.178c.28.281.661.438 1.059.439l43.529.054V40H22a1.5 1.5 0 0 0-1.442 1.088L13.5 65.79V24.5h19.234zm51.992 51h-70.88L23.132 43h70.88l-9.286 32.5z"/>
</svg>
