<svg xmlns="http://www.w3.org/2000/svg" fill-rule="evenodd" viewBox="0 0 100 100">
    <path d="M79.1 10.1H63.2V3.3c0-.8-.7-1.5-1.5-1.5H38c-.8 0-1.5.7-1.5 1.5v6.8H19.7c-3.5 0-6.3 2.8-6.3 6.3v75.4c0 3.5 2.8 6.3 6.3 6.3h59.5c3.5 0 6.3-2.8 6.3-6.3V16.4c-.1-3.5-2.9-6.3-6.4-6.3zM38 29.5h23.7c.8 0 1.5-.7 1.5-1.5v-6.5h10.5v64.7H25.1V21.6h11.4V28c0 .9.7 1.5 1.5 1.5zM60.2 4.8v21.7H39.5V4.8h20.7zm22.2 86.9c0 1.8-1.5 3.3-3.3 3.3H19.7c-1.8 0-3.3-1.5-3.3-3.3V16.4c0-1.8 1.5-3.3 3.3-3.3h16.8v5.5H23.6c-.8 0-1.5.7-1.5 1.5v67.7c0 .8.7 1.5 1.5 1.5h51.6c.8 0 1.5-.7 1.5-1.5V20.1c0-.8-.7-1.5-1.5-1.5h-12v-5.5h15.9c1.8 0 3.3 1.5 3.3 3.3v75.3z"/>
    <path d="M28.8 46.4c0 .8.7 1.5 1.5 1.5h38.5c.8 0 1.5-.7 1.5-1.5s-.7-1.5-1.5-1.5H30.3c-.8 0-1.5.7-1.5 1.5zm40 9H30.3c-.8 0-1.5.7-1.5 1.5s.7 1.5 1.5 1.5h38.5c.8 0 1.5-.7 1.5-1.5s-.7-1.5-1.5-1.5zm0 11H30.3c-.8 0-1.5.7-1.5 1.5s.7 1.5 1.5 1.5h38.5c.8 0 1.5-.7 1.5-1.5s-.7-1.5-1.5-1.5z"/>
</svg>
