<svg xmlns="http://www.w3.org/2000/svg" fill-rule="evenodd" viewBox="0 0 100 100">
    <path d="M47.124 24.078 38.675 36.81H28.649a1.5 1.5 0 0 0-1.5 1.5v10.65h-4.5v-.986a1.5 1.5 0 0 0-1.5-1.5h-9.745l-2.865-4.06a1.5 1.5 0 0 0-1.226-.635H2.067a1.5 1.5 0 0 0-1.5 1.5v23.47a1.5 1.5 0 0 0 1.5 1.5h4.28a1.5 1.5 0 0 0 1.043-.422l3.844-3.719h9.914a1.5 1.5 0 0 0 1.5-1.5v-.984h4.501v14.79a1.5 1.5 0 0 0 1.5 1.5h55.832a1.5 1.5 0 0 0 1.487-1.305l2.786-21.356 6.93 3.452a1.5 1.5 0 0 0 2.17-1.342V38.31a1.5 1.5 0 0 0-2.377-1.218l-4.806 3.46.267-2.048a1.5 1.5 0 0 0-1.487-1.694H42.276l6.915-10.42h39.652a1.5 1.5 0 1 0 0-3H48.41a1.491 1.491 0 0 0-.725.174 1.492 1.492 0 0 0-.56.514ZM27.15 58.624h-4.5V51.96h4.5v6.664Zm-7.5 2.484h-7.522V49.474h7.521v11.634Zm66.41-8.384c-.007.036-.011.072-.015.108l-2.88 22.083H30.149V39.81h57.594l-1.685 12.913Zm3.105-.618 5.69 2.834V41.238l-4.526 3.259c-.06.043-.123.081-.186.114l-.978 7.495Zm-48.917 2.477a2.78 2.78 0 1 0 0 5.56 2.78 2.78 0 0 0 0-5.56Zm-5.78 2.78a5.78 5.78 0 1 1 11.56 0 5.78 5.78 0 0 1-11.56 0Zm17.082 0a2.78 2.78 0 1 1 5.56 0 2.78 2.78 0 0 1-5.56 0Zm2.78-5.78a5.78 5.78 0 1 0 0 11.56 5.78 5.78 0 0 0 0-11.56ZM3.567 65.249V44.78h2.969l2.591 3.671v13.522L5.74 65.25H3.567Z"/>
</svg>
