<?xml version="1.0" encoding="UTF-8" standalone="no"?>
<!-- Generator: Adobe Illustrator 23.0.0, SVG Export Plug-In . SVG Version: 6.00 Build 0)  -->

<svg
   xmlns:dc="http://purl.org/dc/elements/1.1/"
   xmlns:cc="http://creativecommons.org/ns#"
   xmlns:rdf="http://www.w3.org/1999/02/22-rdf-syntax-ns#"
   xmlns:svg="http://www.w3.org/2000/svg"
   xmlns="http://www.w3.org/2000/svg"
   xmlns:sodipodi="http://sodipodi.sourceforge.net/DTD/sodipodi-0.dtd"
   xmlns:inkscape="http://www.inkscape.org/namespaces/inkscape"
   version="1.1"
   x="0px"
   y="0px"
   viewBox="0 0 257.49567 302.36221"
   xml:space="preserve"
   id="svg368"
   sodipodi:docname="80 ОДШБр к.svg"
   width="257.49567"
   height="302.36221"
   inkscape:version="0.92.4 (5da689c313, 2019-01-14)"><metadata
   id="metadata374"><rdf:RDF><cc:Work
       rdf:about=""><dc:format>image/svg+xml</dc:format><dc:type
         rdf:resource="http://purl.org/dc/dcmitype/StillImage" /><dc:title></dc:title></cc:Work></rdf:RDF></metadata><defs
   id="defs372">
	

		
		
	
			
			
		
			
		
				
				
				
				
				
				
			
				
				
			
					
					
				
					
					
				
						
						
						
						
					
						
						
					
						
					
							
							
							
							
							
							
							
							
							
							
							
							
							
						
							
							
							
							
							
							
							
							
							
							
							
							
							
							
							
							
							
							
							
							
							
							
							
							
							
							
							
							
							
							
							
						</defs><sodipodi:namedview
   pagecolor="#ffffff"
   bordercolor="#666666"
   borderopacity="1"
   objecttolerance="10"
   gridtolerance="10"
   guidetolerance="10"
   inkscape:pageopacity="0"
   inkscape:pageshadow="2"
   inkscape:window-width="1280"
   inkscape:window-height="962"
   id="namedview370"
   showgrid="false"
   fit-margin-top="0"
   fit-margin-left="0"
   fit-margin-right="0"
   fit-margin-bottom="0"
   inkscape:zoom="2.5234635"
   inkscape:cx="128.74783"
   inkscape:cy="151.18111"
   inkscape:window-x="-8"
   inkscape:window-y="-8"
   inkscape:window-maximized="1"
   inkscape:current-layer="svg368" />
<style
   type="text/css"
   id="style2">
	.st0{fill:#580019;}
	.st1{fill:#C1852A;}
	.st2{fill:#D8A743;}
	.st3{fill:#A09E9F;}
	.st4{fill:#C3C6C4;}
	.st5{fill:#2B2B2D;}
	.st6{fill:#23000A;}
	.st7{fill:#35000F;}
</style>

<path
   class="st5"
   d="M 1.3070601e-7,1.7756418 C 1.3070601e-7,0.83077688 0.83059463,2.45264e-7 1.7757619,2.45264e-7 H 255.7199 c 0.94516,0 1.77577,0.830776634736 1.77577,1.775641554736 V 118.00665 c 0,85.6111 -50.3635,153.8038 -128.09908,184.3111 -0.15094,0.0593 -1.1466,0.0593 -1.29753,0 C 50.359272,271.80876 1.3070601e-7,203.61162 1.3070601e-7,118.00665 Z"
   id="path229"
   inkscape:connector-curvature="0"
   style="fill:#2b2b2d;stroke-width:0.60109735" /><path
   class="st3"
   d="M 1.7757619,118.00665 V 1.7756418 H 255.7199 V 118.00665 c 0,84.83329 -49.87095,152.39975 -126.97206,182.65801 C 51.642495,270.40486 1.7757619,202.8338 1.7757619,118.00665 Z m 7.5507443,0 c 0,86.93923 53.5664208,148.14386 119.4213338,174.54118 65.85478,-26.39732 119.42132,-87.60195 119.42132,-174.54118 V 9.3263861 H 9.3265062 Z"
   id="path231"
   inkscape:connector-curvature="0"
   style="fill:#a09e9f;stroke-width:0.60109735" /><path
   class="st6"
   d="m 9.3265062,118.00665 c 0,86.93923 53.5664208,148.14386 119.4213338,174.54118 65.85478,-26.39732 119.42132,-87.60195 119.42132,-174.54118 V 9.3263861 H 9.3265062 Z"
   id="path233"
   inkscape:connector-curvature="0"
   style="fill:#23000a;stroke-width:0.60109735" /><path
   class="st0"
   d="M 128.74784,290.63345 C 193.72993,264.32084 246.3934,203.82322 246.3934,118.00665 V 11.102148 H 11.102266 V 118.00665 c 0,85.81657 52.66328,146.31419 117.645574,172.6268 z"
   id="path235"
   inkscape:connector-curvature="0"
   style="fill:#580019;stroke-width:0.60109735" /><path
   class="st4"
   d="M 2.6635815,118.00665 V 2.6635828 H 254.83208 c -0.72485,1.1637845 -2.12265,2.2198525 -4.18339,2.2198525 H 4.8834345 V 118.00665 c 0,33.25812 7.7805425,63.81838 21.9493685,90.43714 1.164981,2.36394 -0.277827,3.73077 -1.82668,1.31327 C 10.564284,182.74724 2.6635815,151.73994 2.6635815,118.00665 Z"
   id="path237"
   inkscape:connector-curvature="0"
   style="fill:#c3c6c4;stroke-width:0.60109735" /><path
   class="st4"
   d="M 251.27684,12.064926 V 118.00665 c 0,81.78018 -47.52101,147.82258 -122.529,177.88915 0,-0.77654 0.47702,-2.57437 2.38015,-3.36793 C 203.09425,262.51879 249.0571,197.89759 249.0571,118.00665 V 13.792119 c 0,-3.63171 2.21974,-3.492015 2.21974,-1.727193 z"
   id="path239"
   inkscape:connector-curvature="0"
   style="fill:#c3c6c4;stroke-width:0.60109735" /><path
   style="fill:#35000f;stroke-width:0.60109735"
   inkscape:connector-curvature="0"
   id="path245"
   d="m 107.94469,68.778219 c -0.79639,-1.027215 -1.16613,-1.195943 -3.26233,-1.050478 -2.00297,0.139094 -2.11232,0.365654 -2.11232,5.691364 0,7.166836 13.37381,5.677671 5.37465,-4.640886 z m 9.72011,19.520516 c 1.86045,-0.705147 4.03042,-5.582331 1.28828,-4.653876 -1.08722,0.367926 -3.76034,1.116358 -4.58722,1.974845 -0.63513,0.659644 -0.73497,1.63198 -0.73497,3.940915 0,0.07622 -0.004,0.152017 -0.0131,0.227154 z M 82.982929,15.905877 c 0.486889,0.238876 2.705599,0.570141 3.039388,0.622803 4.093894,0.645633 7.899922,2.482947 12.080067,2.754343 5.488866,0.35627 10.660716,-2.451396 16.160086,-2.451396 3.06247,0 5.43512,0.420648 7.49165,0.989827 2.03905,0.564377 3.76467,1.275643 5.55186,1.864244 9.81633,3.232755 15.08664,-1.71674 24.11206,-1.71674 4.72654,0 7.87636,0.827957 12.34238,1.958621 3.49749,0.885411 7.15595,1.602171 13.22042,0.935783 13.63631,-1.498296 21.20502,-0.216089 32.73276,7.386176 1.04501,0.689091 1.03155,0.698595 -2.97298,2.913753 -9.34555,5.169798 -14.79143,5.870563 -22.97062,5.870563 -4.08542,0 -6.60216,0.767836 -9.89996,1.390326 -3.21292,0.606573 -6.5998,1.027341 -10.97056,0.264549 -3.62353,-0.632535 -7.12396,-1.785614 -10.84164,-1.785614 -5.36528,0 -7.81696,1.507787 -12.56023,3.195127 -3.76623,1.339666 -8.02669,2.086824 -15.77129,-0.22487 -2.76251,-0.824532 -5.12091,-1.399956 -8.00685,-1.399956 -6.26403,0 -11.51696,4.318409 -17.785393,4.318409 -4.698357,0 -10.567411,-2.952169 -14.862547,-0.430506 -0.156225,0.09172 -0.275488,0.17299 -0.349838,0.236707 -0.168434,1.098325 1.353425,2.441116 -0.410429,3.035481 -0.624066,0.210138 -5.596583,1.424847 -7.671686,1.890451 -2.194552,0.492359 -3.754814,-0.825607 -4.833123,-2.769977 -1.181877,3.398545 -3.022804,4.30512 -5.98729,5.230142 -0.719399,0.219647 -0.97186,0.381403 -1.051085,0.74717 -0.09863,0.455452 0.05482,1.271261 0.562507,2.887792 l 3.571366,19.79642 c 0.815623,3.009394 1.194855,3.573884 1.95873,4.072494 0.433451,0.282817 0.983581,0.538884 1.760614,1.045489 0.793575,0.517485 2.401684,1.600295 3.754219,2.896989 0,0 10.627275,9.442457 14.368331,12.622737 4.004029,3.403714 4.134828,3.717968 6.982767,2.417025 2.281706,-1.042195 5.140577,-2.026853 7.761667,-2.955776 l 1.81315,-0.667044 c -2.16425,-0.513391 -4.31342,-1.845243 -5.788451,-4.340103 -0.843393,-1.874709 -2.165874,-4.363252 -2.24389,-6.469665 -0.0309,-0.832766 0.08848,-1.713554 0.308303,-2.903727 0.215127,-1.164031 0.53125,-2.647954 0.912165,-4.713258 -1.48141,-1.982005 -2.838868,-3.687137 -3.724345,-5.169798 -0.859804,-1.439514 -1.337315,-2.76512 -0.944799,-3.961057 -1.270479,-1.469383 -1.571268,-2.421882 -1.571268,-4.920162 v -7.045102 c 0,-2.878895 1.025165,-5.70026 4.319359,-5.70026 h 11.643206 c 1.28016,0 1.78376,-0.344675 2.56013,-1.184402 1.36984,-1.481344 3.57575,-2.529965 6.36623,-2.234645 l 11.59979,1.61641 c 2.13106,0.466999 4.33697,0.648398 5.20274,2.362914 l 12.20293,-0.01371 c 3.26527,0 2.95775,0.721371 2.01998,3.751208 -0.22095,0.713923 0.0819,0.967635 1.15418,1.51482 11.09883,5.663725 11.03777,5.698877 16.44836,5.698877 0.82357,0 -1.0453,2.43439 -4.12653,8.391205 -2.07764,4.016526 -5.07873,5.438248 -7.76138,5.438248 0.85861,3.542807 0.48329,8.250421 0.48329,11.851776 v 20.943802 c 0,15.50819 7.69447,11.95684 12.35477,5.54621 3.7931,-5.21778 1.78808,-6.81554 -0.21315,-7.65444 -6.51023,-2.72922 -11.10226,-9.105315 -11.10226,-16.572441 0,-5.798245 2.71203,-10.896332 6.99778,-14.178804 0.36951,-0.322194 55.71158,-42.364739 55.71158,-42.364739 8.7732,-6.445627 10.85257,-8.191508 16.11409,-14.592119 1.89652,-2.307312 2.34824,-3.127029 3.31235,2.909371 5.6398,35.316819 -2.03472,42.881623 -19.22303,52.639657 l -20.88314,11.145252 c -5.10278,2.551412 -3.62095,2.756392 -1.79049,2.282782 l 28.0653,-7.519788 c 7.78852,-2.282788 11.95137,-4.095751 16.11415,-7.519968 1.24871,-1.027155 1.94575,0.826875 1.0295,5.32675 -4.5209,22.201518 -8.87714,31.332927 -29.76639,32.407137 0,0 -10.69793,0.80558 -15.89021,0.98466 -4.58059,0.15796 -3.04371,0.80577 -0.46043,1.23237 3.48511,0.57542 18.41029,2.8016 18.41029,2.8016 7.78853,1.0742 13.92026,1.56133 18.28056,0.64274 1.91324,-0.40296 0.60905,1.94168 -1.00328,4.40996 -10.87697,16.65117 -21.97786,20.81394 -37.28619,14.81601 -2.40013,-0.94046 -8.07887,-3.23985 -12.44367,-5.10276 -3.67042,-1.56676 -3.84936,-0.44771 -0.98467,1.52186 l 12.64264,7.62299 c 9.01646,5.10933 13.62484,6.71221 17.93272,6.61207 1.58739,-0.0369 -0.83667,3.51954 -10.21865,8.11482 -9.81791,4.80878 -21.47216,5.55492 -32.76522,-5.16999 -2.49738,-2.37187 -4.53545,-4.27188 -6.81266,-6.40811 -0.99812,-0.93639 -1.57667,-0.48923 -1.02637,0.44859 l 24.34655,36.39152 c 8.24122,11.78386 17.54603,7.71322 18.95994,6.08779 5.8462,-6.72026 -4.4578,-12.07153 -7.59109,-4.9097 -0.61499,1.40579 -3.17121,-1.43278 -3.22278,-5.01321 -0.0594,-4.11813 1.43229,-9.75809 7.54137,-12.16435 5.40963,-2.1309 9.37538,-1.17497 12.77253,0.63938 0,-12.28805 0.86895,-12.95784 18.75226,-22.19797 2.65144,-1.37002 4.99698,-0.16831 3.99423,1.04717 -2.95421,3.58092 -3.39656,7.11525 -3.67048,10.20554 -0.62652,7.07234 -1.70814,16.77261 -1.70814,16.77261 -2.28759,15.52755 -9.20472,26.18481 -21.14126,31.05779 -11.7015,5.10494 -28.33001,2.65168 -38.70898,-13.30337 l -3.09794,-4.94047 c -0.32441,-0.51701 -1.12326,-0.2964 -1.12754,0.31388 -0.004,0.63579 -0.008,18.04663 -0.008,18.04663 0,4.46484 1.54921,7.27966 9.39167,13.64449 12.35418,10.02667 14.50261,11.2799 21.84351,9.31041 3.09979,-0.83173 2.61947,0.96247 1.8809,1.96967 l -7.10948,9.73964 c -2.72796,3.4548 -5.49109,5.03293 -9.04514,4.03264 -2.4437,-0.68784 -2.27009,-0.009 -1.90559,1.00907 1.73969,4.86059 0.46891,9.65838 -3.69387,12.74674 l -17.72551,11.61562 c -1.24343,0.79573 -1.57391,1.16976 -2.5055,0.74481 -0.58998,-0.26907 -1.31028,0.006 -1.58245,0.59486 -2.33496,5.04853 -7.64218,7.44228 -13.48585,7.7009 -0.61926,0.0275 -1.1778,0.38482 -1.41391,0.95796 -1.22389,2.97247 -4.17156,5.33258 -8.25932,5.88179 -0.55066,0.074 -0.92827,0.56984 -0.90218,1.12875 v 5.63793 c 0,2.6444 0.62015,3.26847 -2.49251,1.18829 -11.60791,-7.75806 -13.43898,-12.48491 -8.98215,-17.36365 -3.69181,-0.89886 -5.0179,-1.97328 -5.9446,0.66596 -0.53005,1.50963 -1.28437,4.61216 -1.79109,6.69351 -0.31125,1.27909 -0.63138,2.28281 -3.64873,-3.04247 -3.64858,-6.43934 -4.13705,-10.82418 -3.66014,-13.91086 -5.840733,0 -5.412812,-0.43923 -7.413571,6.54636 -0.749983,2.61861 -1.233271,2.07284 -1.860937,0.94281 -0.499692,-0.89933 -0.965116,-2.50356 -1.294337,-3.94588 -5.57843,-24.42753 11.716645,-23.45081 32.684485,-11.39964 3.30308,1.89842 11.98227,0.53689 14.82726,-5.26984 l 6.89327,-13.40613 c 0.3656,-0.7542 -1.08828,-1.0455 -1.8194,-0.6355 l -4.80529,2.69454 c -3.3572,1.88001 -6.75477,1.08186 -5.89904,-0.27109 1.57907,-2.49671 3.75047,-6.0403 2.23577,-9.37886 l -8.604,-15.00056 c -1.96684,-5.02619 -1.32625,-8.54243 -0.1178,-11.8849 0.14389,-0.39829 0.0675,-0.57783 -0.15922,-0.71314 -0.30862,-0.18418 -0.92955,-0.2973 -2.00516,-0.2973 -5.97184,0 -10.17976,0 -12.9977,0 0.68062,2.0367 0.49043,5.22726 -0.66223,7.93431 l -5.0931,11.88603 c -0.66655,1.61358 -2.08995,2.81884 -2.80748,1.5631 -0.76135,-1.33264 -1.9231,-2.62404 -2.85575,-3.39765 -0.66872,-0.55481 -1.66985,-0.22589 -1.90512,0.61048 -0.49032,1.74282 0.60404,2.72531 4.09155,7.56902 1.72135,2.39092 6.88569,6.21637 -5.355785,14.91911 -4.31107,3.06499 -4.821402,2.25905 -4.207922,-0.47812 1.24325,-5.54679 -1.721423,-3.34732 -2.874207,-6.09992 -2.801108,0.92201 -5.737288,1.22791 -8.644501,0.55233 l -0.334986,-0.0833 c -4.488099,5.87716 -10.761511,5.26183 -16.223797,1.68326 -1.743904,-0.77609 -5.153087,7.07419 -6.805931,7.62436 -0.401413,0.13357 -0.700759,-0.0903 -0.853251,-0.47113 -4.318103,-10.79114 -2.159984,-15.58784 1.361245,-17.94114 -2.186859,-0.65279 -4.149676,-1.88203 -5.603249,-4.14932 -2.125306,0.6581 -6.623739,3.40481 -8.068536,4.52543 -1.390458,1.07843 -2.061584,0.14174 -2.19454,-1.07627 -0.130805,-1.19576 0.130618,-2.92919 0.535758,-4.28931 2.118267,-7.11295 4.083621,-9.72586 6.656371,-11.70353 -1.120932,-0.32003 -1.849035,-0.96218 -2.803097,-1.53545 -0.226073,-0.13597 -0.43826,-0.23268 -0.664038,-0.28048 -0.657835,0.30844 -4.22343,2.75689 -6.131373,4.47308 -1.564236,1.40704 -1.876079,-0.27578 -1.799385,-1.48856 0.09173,-1.45081 0.592513,-3.48559 1.117025,-4.88326 7.793588,-20.76209 21.9549,-11.08898 32.940795,7.61669 2.251951,3.83452 6.826657,3.89588 8.979607,0.016 l 0.842017,-1.91401 c 0.275008,-0.62515 -0.159531,-1.32813 -0.841109,-1.37158 -0.473424,-0.0301 -0.920587,-0.0611 -1.332813,-0.0611 -2.663529,0 -2.011993,-0.6184 -1.317305,-2.28434 1.04639,-2.50904 1.812008,-5.1014 1.812008,-8.45841 v -4.32219 c 0,-12.37131 4.303556,-17.82175 17.902239,-17.82175 l 26.27487,1.7e-4 c 4.58168,0 4.04231,-1.52906 2.46839,-3.09654 l -9.80664,-9.22931 c -1.44986,-1.32596 -1.96169,-1.37393 -2.50593,-0.0904 l -1.32715,2.63467 c -3.57094,7.04763 -7.44935,7.4292 -15.23789,7.4292 -3.352619,0 -3.016546,0 -7.698914,0 -6.714137,0 -9.131924,-5.60902 -9.131329,-6.34452 0,-0.962 2.864649,-0.35808 4.123708,-1.9698 0.465976,-0.59658 -1.435421,-1.08125 -2.809643,-1.2733 -11.53272,-1.61214 -18.206283,-3.11748 -21.814544,-3.56059 -5.102782,-0.62671 -5.134339,-1.27667 -7.967485,6.71419 -3.491354,9.84759 -6.969303,8.31491 -18.748767,8.31491 -4.169031,0 -3.858751,-0.60247 -1.930966,-2.04824 2.158301,-1.61875 4.137654,-3.24279 5.612621,-4.56478 0.393478,-0.35267 0.517064,-0.91956 0.299112,-1.40098 -1.10656,-2.44322 -0.611262,-4.08807 0.08625,-5.58275 0.626704,-1.3428 0.639628,-1.2495 -1.866407,-0.98472 -3.388446,0.35813 -5.340443,-1.21014 -6.727782,-2.32764 -5.281836,-1.07421 -13.772883,-3.84948 -12.707552,-4.8684 1.505141,-1.43951 6.891641,-4.1403 11.557232,-5.69527 0.487496,-0.48731 1.107347,-1.34718 2.059065,-2.05906 0.640169,-0.47872 -0.179067,-0.0895 -4.476071,-3.67031 -0.774214,-0.64527 -2.238126,-1.37885 -4.386689,-1.37885 H 18.37908 c -1.163905,0 1.233572,-4.29731 5.460729,-8.55825 2.062178,-2.07841 5.287192,-4.29698 8.057169,-4.29698 0.984651,0 0.716087,-2.14858 -8.325619,-2.14858 -1.432475,0 1.700979,-4.65515 9.399834,-8.05698 6.591639,-2.91268 10.581958,-0.80674 15.371147,6.45073 7.233064,10.96131 6.930285,10.96022 12.872259,10.96022 h 5.896698 c 1.108731,0 1.353732,-0.33872 1.655308,-1.74449 0.239237,-1.11499 0.762011,-4.39236 1.305163,-7.10324 0.178586,-0.89124 -0.577655,-1.53471 -1.48676,-1.53471 -1.461081,0 -1.569339,0.0702 -1.326856,-1.43339 0.671425,-4.16283 -0.671366,-6.71419 -3.89421,-10.20561 l -8.621779,-8.85074 c -5.478101,-5.383364 -9.644012,-4.652429 -11.789328,-3.906155 -1.960894,0.681813 -2.329373,0.911071 -2.329373,-2.240356 0,-3.219471 0.63723,-5.549144 1.77156,-7.257775 1.633422,-2.46028 1.272944,-3.848694 0.177979,-6.492928 -0.750764,-1.812789 -1.0878,-3.856821 -1.0878,-5.88871 V 55.932823 c 0,-2.025944 0.103744,-3.216418 0.05656,-4.029516 -0.04316,-0.745782 -0.21003,-1.108123 -0.748126,-1.571689 -1.843445,-1.364678 -2.986252,-3.132799 -3.507169,-4.941682 -0.471735,-1.638296 -0.599708,-2.738479 -0.790497,-3.429074 -0.165428,-0.600147 -0.328439,-0.759186 -0.887466,-0.759186 -5.378252,0 -9.638055,-4.442476 -9.638055,-9.797952 0,-4.302956 2.737157,-7.994956 6.595908,-9.299157 2.598844,-0.876706 2.638871,-1.622007 2.80826,-1.863281 2.327629,-3.312281 5.956821,-3.77435 9.041767,-2.685589 1.341414,0.473611 2.020348,0.120653 2.596085,-0.626692 2.88671,-3.746225 9.002454,-3.750012 11.727469,0.537141 0.299821,0.471735 0.969324,0.590031 2.417193,-0.08951 1.836346,-0.862033 3.974035,-0.625141 5.760851,0.14751 3.074673,1.329212 2.086114,-6.745935 7.747483,-5.673758 1.996551,0.510812 6.672427,1.711865 7.213709,1.93938 1.20496,0.506725 1.271081,1.100008 1.103561,2.116103 z"
   class="st7" /><path
   class="st3"
   d="m 40.986536,129.51821 c -4.118353,-2.78147 -5.728458,-2.51247 -5.728458,-6.93445 0,-1.10554 -1.406988,-1.12584 -7.926665,-1.12584 10.921813,-7.1431 14.517102,-5.45185 19.705167,2.99015 2.639239,4.29448 4.107665,6.26463 5.365155,7.83542 0.65935,0.82386 -1.399228,0.85435 -3.126548,0.85435 -2.962141,0 -3.256986,-0.2214 -8.288651,-3.61963 z"
   id="path247"
   inkscape:connector-curvature="0"
   style="fill:#a09e9f;stroke-width:0.60109735" /><path
   style="fill:#a09e9f;stroke-width:0.60109735"
   inkscape:connector-curvature="0"
   id="path249"
   d="m 136.34293,64.803517 c 7.20343,4.215321 10.06622,-9.913051 11.72292,-8.987722 9.04308,5.051376 9.76464,5.484172 13.22743,5.484172 1.36107,0 1.13433,0.07202 -3.10202,6.708854 -2.52496,3.24628 -6.36279,3.333138 -8.95666,2.092353 2.92093,3.556092 2.38546,7.386344 2.38546,14.214269 v 21.012377 c 0,5.11751 0.55746,10.00389 2.96137,13.4745 -7.95793,3.40528 -19.54456,2.05509 -22.99046,-3.65906 -2.66035,-4.41151 5.67213,-8.12263 7.13526,-11.84493 l -21.98051,11.72068 c -7.28511,3.77513 -11.44117,8.97372 -13.01773,15.45854 -0.37982,1.56201 -1.75237,2.11514 -3.35965,2.11514 h -7.545147 c -5.410718,0 -1.810145,-13.83131 4.933747,-19.50615 -14.764941,7.44447 -10.450438,19.50615 -15.770991,19.50615 h -8.050737 c -1.413126,0 -2.588151,-0.71217 -2.422062,-2.11544 1.702969,-14.38979 10.560559,-27.10329 32.7,-34.948282 l 22.81061,-8.392575 c 8.06716,-3.129493 14.89495,-6.033575 9.57417,-14.856662 1.72922,7.306693 -2.79324,7.995917 -8.646,10.615439 -2.57488,1.152304 -5.45388,2.137923 -5.45388,1.929829 2.92649,-6.203691 1.33028,-8.547315 -6.39376,-20.107553 -0.41012,2.096862 0.19301,2.634543 0.82157,4.023565 2.91184,6.433906 5.30625,10.56963 1.0497,12.011187 -7.31716,2.478144 -7.0861,3.958286 -7.0861,8.375564 -4.17275,1.422497 -7.0865,1.359568 -9.21884,-2.246841 -3.021057,-6.714678 -2.464801,-5.149956 -1.31214,-11.154792 3.85467,9.134155 19.2133,3.72247 9.50306,-8.960865 -1.41156,-1.843445 -0.93111,-2.205612 -2.36827,-8.841366 -2.02828,6.737466 -0.82403,6.635754 -3.69747,6.790302 -1.80563,0.09713 -3.847199,-0.16458 -3.847199,1.261403 0,3.019306 -0.08217,5.116059 -0.08217,6.20651 -4.415902,-5.67172 -4.276874,-6.382818 -2.788257,-7.967906 -1.905893,-0.833121 -2.376378,-2.576604 -2.376378,-4.277348 v -7.045276 c 0,-2.515893 0.738274,-3.103237 1.72233,-3.103237 h 11.643194 c 1.23015,0 1.23015,0.08387 1.9683,2.600113 0.39496,1.346584 0.16403,1.845128 -1.9683,3.52267 3.65641,-0.726119 10.04122,-1.760007 13.69559,-2.348607 -7.21684,-3.354664 -8.03685,-3.774176 -9.59514,-3.019186 -1.31221,0 -0.24609,-4.696866 4.51045,-4.193561 l 11.45823,1.593394 c 2.29638,0.503468 3.22604,1.593443 3.19838,3.271106 h 12.65245 c 1.96829,0 0.53731,2.619041 -1.31311,6.038684 -2.85407,5.274689 -4.10591,3.994532 -14.35054,-0.08373 0,2.513429 0.78654,2.655768 8.0193,7.634291 z"
   class="st3" /><path
   style="fill:#a09e9f;stroke-width:0.60109735"
   inkscape:connector-curvature="0"
   id="path251"
   d="m 157.10893,141.08483 24.39373,36.46274 c 5.26333,7.54936 11.44532,9.43109 16.162,9.0967 3.42043,-0.24255 5.40242,-1.20995 7.04023,-2.90769 1.43946,-1.49211 1.79939,-2.98757 2.01878,-4.35513 1.01929,-6.35324 -6.89969,-10.35365 -11.90906,-4.53401 -1.20388,1.39875 -2.58045,-9.6321 5.46091,-12.62275 5.27434,-1.96167 8.63465,-0.48718 11.85166,1.52265 1.71374,1.07061 2.51501,0.82012 2.51501,-1.21151 0,-13.02339 0.94167,-12.57574 16.96625,-21.61757 -2.32762,3.13327 -2.38262,4.89088 -2.77508,8.32555 l -1.91749,16.96212 c -2.19828,14.92009 -8.71652,24.59264 -19.55443,29.01733 -10.59993,4.65201 -25.86847,2.56217 -35.53542,-12.29822 L 161.48077,166.4272 c -1.57608,-2.12422 -2.37403,1.33715 -1.01171,3.60154 2.82155,4.68981 2.33778,5.3523 2.33778,13.45755 v 14.25682 c 0,6.13714 1.70983,9.19662 9.80542,15.68846 16.29881,13.07027 17.36736,11.45902 22.87077,10.15247 l -5.74522,7.69741 c -3.22921,4.08969 -7.18762,3.23301 -13.72763,-1.28309 -2.14621,-1.75701 -3.54009,-1.91156 -2.32276,0.21892 1.07423,1.87999 3.35714,6.84854 3.35714,6.84854 2.16311,4.13513 2.72953,8.41492 -2.01433,11.68258 l -4.74561,3.357 c 0.52061,-2.54824 0.44861,-3.49117 -3.40498,-10.21865 -1.5839,-2.76518 -2.20812,-1.97768 -1.51782,1.49028 2.05816,10.33978 0.80486,11.05604 -2.41793,13.20461 l -5.10199,3.31234 c 0.4028,-2.81999 0.73838,-4.0286 -3.21701,-9.72116 -1.45689,-2.09687 -2.19015,-0.1935 -1.06298,1.91119 4.03589,11.04744 -6.63341,17.97675 -16.14288,16.75335 -0.26076,3.65358 -1.95808,6.34168 -6.8417,6.34168 -1.62417,0 -1.62261,0.44767 -1.63468,1.25939 -0.0195,1.31388 0.10609,3.70623 0.10609,7.22385 -14.34584,-9.53417 -11.00255,-12.78587 1.84284,-20.35939 2.69762,-1.59064 -0.2289,-4.2958 -1.48627,-2.89362 -5.36228,5.98121 -7.42602,6.05874 -11.47957,4.89375 -6.14923,-1.76705 -5.52939,-1.38065 -7.58122,6.79679 -7.37703,-15.90442 -4.37546,-18.07937 14.31051,-16.72008 10.86902,0.79063 16.76604,-3.59961 19.73534,-9.66022 l 9.19823,-16.57664 c 2.9544,-6.04277 5.23718,-7.38555 10.4303,-5.70711 1.482,0.47908 0.75978,-1.3208 -0.60423,-2.28279 -6.37937,-4.49843 -9.60216,-7.54232 -13.18307,-10.58604 -1.01545,-0.86313 -2.3892,-0.75 -0.35809,2.68575 4.7895,8.10166 6.68638,9.62898 0.35809,13.74163 l -11.18962,6.3114 c 1.36184,-1.97863 3.22279,-4.8342 1.47985,-9.1145 l -8.66229,-15.15226 c -3.4259,-6.88715 -0.17908,-11.10336 2.29047,-15.68397 14.87908,-27.5989 17.18766,-27.8873 12.13772,-35.38979 -1.85294,-2.75297 -2.21468,-0.58233 -1.44263,1.15424 2.00797,4.5179 0.61516,5.99569 -3.57966,12.76068 -1.10614,1.78388 -3.5556,2.14281 -5.11186,0.73455 -3.07189,-2.77971 -7.7937,-7.13202 -10.93119,-10.17681 -5.83557,-5.66391 -2.55514,-6.94388 2.01999,-7.79108 7.79119,-1.44263 14.13973,-6.05947 16.30398,-14.42759 0.56204,-2.17261 0.30355,-2.95685 6.82024,-2.79228 5.48279,0.13855 5.68109,1.86712 6.74233,3.65793 z"
   class="st3" /><path
   style="fill:#a09e9f;stroke-width:0.60109735"
   inkscape:connector-curvature="0"
   id="path253"
   d="m 95.89462,261.36583 c -4.123768,-18.05768 6.42699,-19.86771 24.66921,-11.02293 3.21984,1.56112 2.65216,2.37471 -0.4783,2.27782 -7.96262,-0.24669 -11.75992,-0.52952 -13.5379,1.26875 -1.97984,2.00247 -3.46089,1.94171 -5.47492,1.94171 -2.887374,0 -3.288601,0.0342 -5.17809,5.53465 z"
   class="st3" /><path
   style="fill:#a09e9f;stroke-width:0.60109735"
   inkscape:connector-curvature="0"
   id="path255"
   d="m 43.431439,204.60884 c 6.144363,-17.11366 15.840724,-13.97245 26.337501,1.88624 0.673475,1.01749 2.77196,4.66915 -1.122249,1.5806 -4.785576,-3.79564 -9.185669,-5.17996 -11.450778,-4.64823 -3.174521,0.74543 -4.769954,-0.0538 -5.973591,-0.94457 -2.351968,-1.74107 -2.284831,-1.74107 -7.790883,2.12596 z"
   class="st3" /><path
   style="fill:#a09e9f;stroke-width:0.60109735"
   inkscape:connector-curvature="0"
   id="path257"
   d="m 134.92327,176.12927 c 2.59703,0 3.16609,-0.0316 0.40074,5.21049 -6.92553,13.12912 -7.28807,12.73305 -11.03944,12.73305 -17.4682,0 -17.54334,-0.79915 -19.87259,4.761 3.08063,-3.68172 8.82923,-0.54701 6.57205,4.75437 l -4.70732,11.72338 c -0.70528,-3.5342 -4.43135,-2.55135 -5.7742,-7.25122 -4.028559,9.26563 -2.914479,10.49042 -0.66355,12.92774 6.257,6.77468 6.92651,7.82672 -2.6372,15.4776 2.86922,-8.6073 -2.864824,-3.37936 -3.288062,-8.68075 -6.066094,2.71859 -9.028723,1.63108 -11.709196,0.81545 -2.257301,4.62184 -7.476984,6.79685 -13.120086,2.85468 -2.535915,-1.77168 -5.221859,-1.38763 -8.323515,5.70921 -3.526878,-12.91385 2.376973,-14.13991 10.439618,-14.40914 2.53933,0 3.244838,-2.175 0.564365,-2.175 -7.336027,0 -11.850394,0.67983 -14.530861,-3.942 -0.903269,-1.55751 -3.950112,-1.08762 -9.734291,3.39825 4.655559,-15.63239 9.311058,-17.67144 24.547373,-6.2531 5.595555,4.19374 11.144879,2.58297 14.107388,-2.8545 l 3.950111,-8.97168 c -2.257,2.17483 -5.783879,2.03892 -6.771476,2.03892 2.398252,-2.44687 2.257175,-8.02014 2.257175,-12.64198 0,-10.83556 4.091188,-15.22477 16.359107,-15.22477 z"
   class="st3" /><path
   style="fill:#a09e9f;stroke-width:0.60109735"
   inkscape:connector-curvature="0"
   id="path259"
   d="m 157.85362,86.64734 c 0,-4.949195 2.36634,-9.352774 6.04368,-12.169336 0.36846,-0.321226 55.94768,-42.245962 55.94768,-42.245962 7.00194,-5.114076 9.63474,-7.287344 15.11596,-13.507439 4.74591,28.968089 1.48093,39.11665 -16.51304,49.411758 l -24.95653,13.875852 c -1.87999,1.007024 -2.57186,1.801855 -2.86466,-0.716262 -0.35813,-4.02856 -1.70099,-5.460909 -2.95438,-6.714197 -1.02265,-1.022647 -1.3428,-1.163719 1.5159,-3.491228 l 27.17409,-20.619213 c 7.17417,-5.361061 9.00638,-8.211519 11.74696,-14.972427 -3.83686,4.597306 -6.55526,6.464014 -9.78822,9.191313 L 179.3669,73.462865 c -0.51701,0.382064 -1.07002,1.522045 0.41909,1.522045 8.59779,0 10.18024,8.138611 7.58873,13.390531 -0.5054,1.024318 -0.0105,2.232043 1.05986,2.630991 6.21336,2.3161 5.88755,12.050088 -2.98621,16.303688 -0.897,0.42996 -1.22762,1.51686 -0.71428,2.36893 2.4484,4.06389 -1.03328,10.82221 -11.16761,11.19219 -0.98326,0.0359 -1.70939,0.89996 -1.61543,1.8794 0.75979,7.91842 -7.4164,11.00416 -19.99822,10.55796 -3.28727,0 -6.58056,-0.49374 -8.85007,-0.88031 -0.45779,-0.078 -1.27252,-0.23466 -1.75845,0.11938 -0.47438,0.34564 -0.62563,1.19547 -0.62545,1.68187 0,0.002 0,0.005 0,0.007 0.38218,9.36745 -7.60916,16.77037 -16.99536,16.77037 -2.89122,0 -4.54298,0.20252 -5.23953,1.98952 l -4.80414,9.58559 c -3.2041,6.32324 -4.83078,6.05947 -22.203161,6.05947 -1.587192,0 -5.214219,-2.5864 -3.623589,-2.92578 4.544951,-0.96963 4.761346,-1.83526 10.821308,-10.92477 1.467222,-2.20074 -0.0574,-2.81042 -2.452356,-0.36323 -6.177171,6.31121 -0.47649,5.52288 -32.557891,1.08276 -7.576171,-1.04857 -6.996352,-1.67311 -10.116047,7.16182 -2.962274,8.38874 -3.033384,8.39421 -14.653016,8.39421 1.497159,-1.06671 5.700747,-4.45527 5.074043,-5.61905 -2.270459,-4.21671 0.282161,-6.80372 3.401856,-8.23607 0.976422,-0.44824 0.984832,-0.53714 0.984832,-2.23807 0,-1.34284 -1.454229,-0.75641 -3.567507,-0.26863 -5.758699,1.32969 -7.737746,2.43422 -11.22646,-0.54338 -2.661233,-0.58223 -5.843749,-0.96002 -9.948095,-2.78628 1.876806,-1.12133 6.051788,-2.89175 8.773015,-3.5865 0.311675,-0.0796 0.626464,-0.21598 0.826028,-0.46825 2.223279,-2.81067 3.627262,-2.6277 10.2463,-2.6277 1.008941,0 0.165482,-1.89436 -1.535437,-1.89436 -4.834206,0 -4.744642,0.17908 -10.205551,-4.11812 -2.495342,-1.96342 -3.849488,-2.05888 -5.998116,-2.05888 -2.129502,0 -2.77514,0 -4.296999,0 0,0 2.216547,-2.70595 3.849542,-4.47618 3.095056,-3.35528 6.176822,-5.81893 14.502555,-0.26864 5.144498,3.42968 5.460909,3.87215 9.310397,3.87215 h 48.373314 c 4.968425,0 7.251225,2.61832 6.579795,7.24906 -0.20126,1.38811 -2.01422,3.19808 0.80576,3.19808 1.08222,0 2.40969,0 3.80206,0 2.64358,0 2.2073,-0.9572 1.57217,-1.77607 -2.18967,-2.82341 -3.49044,-6.35342 -3.49044,-10.18307 0,-9.26231 7.60899,-16.77049 16.99536,-16.77049 2.92266,0 5.6728,0.72793 8.07478,2.00994 l 0.17907,0.0863 c 4.37622,2.26187 9.62945,3.83933 14.90492,3.56703 22.01532,-1.13625 28.36075,-20.32255 23.19466,-21.44817 -6.99243,-1.52329 -12.22331,-7.675591 -12.22331,-15.033804 z"
   class="st3" /><path
   style="fill:#a09e9f;stroke-width:0.60109735"
   inkscape:connector-curvature="0"
   id="path261"
   d="m 193.7223,87.804994 30.12718,-7.863736 c 9.6282,-2.405105 14.18368,-6.028045 15.00832,-6.834952 -5.12905,26.60859 -11.12775,29.819824 -26.71908,31.825264 l -17.72052,1.44955 c -2.16715,0.19518 -2.07823,0.0212 -0.77326,-2.36873 2.90234,-5.315939 1.92044,-10.31291 -0.27734,-13.139931 -1.27949,-1.64593 -2.37308,-2.222022 0.3547,-3.067465 z"
   class="st3" /><path
   style="fill:#a09e9f;stroke-width:0.60109735"
   inkscape:connector-curvature="0"
   id="path263"
   d="m 187.73767,114.46744 c 0.66373,-2.52713 -0.4411,-3.85087 2.62011,-3.36385 l 21.99019,3.76233 c 6.99214,1.27986 12.55554,1.51187 15.99803,0.95388 -12.37991,19.01222 -21.98737,18.88786 -35.17978,14.0162 -4.44331,-1.64093 -10.38039,-3.95534 -12.58149,-4.88674 -2.55749,-1.08197 -1.88812,-1.56886 0.4698,-2.78668 5.30889,-2.74184 6.31309,-6.28683 6.68314,-7.69514 z"
   class="st3" /><path
   style="fill:#a09e9f;stroke-width:0.60109735"
   inkscape:connector-curvature="0"
   id="path265"
   d="m 173.34492,129.45364 c 1.40765,-1.88546 1.34671,-1.42687 5.28576,1.07982 l 13.3161,8.21562 c 5.19228,3.40185 12.12215,6.11117 15.02744,6.11117 -16.02928,11.42084 -28.40389,8.47632 -37.04683,0.23539 -2.38636,-2.27533 -6.0804,-5.90957 -7.25488,-7.08236 -1.7097,-1.70719 -1.48238,-2.38606 0.33637,-2.7442 3.15751,-0.62201 7.32779,-1.78622 10.33604,-5.81544 z"
   class="st3" /><path
   style="fill:#a09e9f;stroke-width:0.60109735"
   inkscape:connector-curvature="0"
   id="path267"
   d="m 86.317456,95.537756 c 3.232034,3.081045 1.57,3.475425 -1.518438,6.066994 -5.856846,4.91433 -5.464936,4.41042 -10.593974,0.22967 -1.525952,-1.24391 -1.462175,0.57327 -0.245915,2.37952 2.833393,4.2076 2.699174,4.61046 -3.075027,14.68179 0,-3.17079 -1.342972,-5.77421 -6.714318,-10.87697 l -7.355868,-7.42104 c -6.072526,-5.604504 -9.812013,-5.765418 -13.737299,-4.786416 0,-6.861154 3.200477,-8.308837 8.432013,-9.253046 1.785019,-0.204788 1.010445,-1.104691 -0.369374,-1.007193 -4.985327,-0.314687 -7.201092,-4.343235 -7.201092,-9.378988 V 55.499853 c 0,-3.336079 0.744826,-3.675765 4.493089,-4.658078 1.551426,-0.406576 1.476896,-1.133014 0.18453,-1.133014 -11.514734,0 -9.884985,-13.539171 -5.11672,-10.238059 2.61297,1.808997 4.321469,-5.427013 7.635318,3.047678 0.967647,2.474652 1.30913,1.876806 2.057983,0.283598 2.78831,-5.932404 5.949656,-5.835754 6.854127,-3.523278 0.227221,0.5809 0.137236,1.226064 -0.160427,1.861424 -0.472823,1.008702 0.111257,1.581962 1.1645,1.21932 2.498281,-0.860104 3.188046,-2.068731 3.955341,-3.190258 1.306545,-1.9095 2.311519,-2.469849 2.311519,1.507486 0,4.622986 -1.484698,5.357286 -3.879055,6.184336 -0.809678,0.27969 -6.770887,2.166715 -7.945124,2.414842 -1.747637,0.369321 -1.520602,1.472334 0.385183,1.565925 2.69279,0.132476 3.754334,0.314789 4.800604,3.021536 l 3.569797,19.790829 c 1.066767,5.035339 -4.743807,7.790342 -7.949693,5.185613 -2.670916,-2.170148 -0.860417,3.010344 1.502743,6.161248 3.618005,4.823986 5.039961,5.099517 4.257807,2.855212 -2.373974,-6.811701 3.789318,-11.054787 9.69799,-5.389505 z"
   class="st3" /><path
   style="fill:#a09e9f;stroke-width:0.60109735"
   inkscape:connector-curvature="0"
   id="path269"
   d="m 67.555405,24.064872 c -0.59377,7.033079 -3.083756,11.281509 -5.490123,14.331183 -1.373934,-3.6664 -3.250794,-10.661838 -2.452357,-15.726444 0.789361,-5.006546 8.462008,-4.757511 7.94248,1.395261 z"
   class="st3" /><path
   style="fill:#a09e9f;stroke-width:0.60109735"
   inkscape:connector-curvature="0"
   id="path271"
   d="M 46.109394,23.666886 C 46.222695,31.127345 44.945663,34.727618 43.837721,37.497174 41.99133,34.727618 38.5643,30.317787 37.78119,23.659252 c -0.634218,-5.393887 8.24417,-5.528894 8.328204,0.0076 z"
   class="st3" /><path
   style="fill:#a09e9f;stroke-width:0.60109735"
   inkscape:connector-curvature="0"
   id="path273"
   d="m 57.452636,22.587255 c 0,5.904639 -2.835791,12.295987 -4.921539,16.002052 -2.085754,-3.706065 -4.496995,-10.890862 -4.496995,-16.65833 0,-6.77792 9.418534,-7.605264 9.418534,0.656278 z"
   class="st3" /><path
   style="fill:#c3c6c4;stroke-width:0.60109735"
   inkscape:connector-curvature="0"
   id="path279"
   d="m 43.189738,125.64083 c 2.762649,3.03361 5.523129,2.99736 4.779691,1.97875 -6.80935,-9.32777 -8.820929,-11.21415 -15.803696,-7.55544 4.834211,-0.52264 5.382472,-0.61792 11.024005,5.57669 z"
   class="st4" /><path
   style="fill:#c3c6c4;stroke-width:0.60109735"
   inkscape:connector-curvature="0"
   id="path281"
   d="m 104.73922,250.51809 c -6.116039,-0.61999 -7.400704,2.26674 -8.144502,4.86359 -0.751077,-6.78091 2.983901,-10.39263 12.392942,-8.03667 2.76637,0.69264 -1.23833,3.60152 -4.24844,3.17308 z"
   class="st4" /><path
   style="fill:#c3c6c4;stroke-width:0.60109735"
   inkscape:connector-curvature="0"
   id="path283"
   d="m 140.60075,79.919077 c -0.55018,7.665614 -3.34751,10.070425 -8.57945,12.279151 l -26.04303,9.748842 c -17.896293,6.54372 -24.762213,15.47633 -27.070787,26.58581 -0.29027,1.39671 -0.404358,1.97635 -2.708244,1.97635 -2.270285,0 -3.126362,-0.73826 -2.918743,-1.97635 1.875604,-13.12934 12.027411,-25.42551 32.228424,-32.331693 l 22.92425,-8.137902 c 5.0679,-1.896762 10.61398,-4.07562 12.16758,-8.144208 z"
   class="st4" /><path
   style="fill:#c3c6c4;stroke-width:0.60109735"
   inkscape:connector-curvature="0"
   id="path285"
   d="m 151.76632,117.56779 c -3.86452,-1.26923 -6.41451,-4.98984 -6.41451,-12.4423 V 80.772696 c 0,-6.467152 0,-8.547003 -1.64206,-11.725907 -0.67281,-1.210604 1.64206,-0.218853 4.2444,2.125781 2.80526,3.295276 2.01278,8.751497 2.01278,12.730701 v 23.162079 c 0,2.81434 0.0737,6.96276 1.79939,10.50244 z"
   class="st4" /><path
   style="fill:#c3c6c4;stroke-width:0.60109735"
   inkscape:connector-curvature="0"
   id="path287"
   d="m 107.83901,50.86865 c 1.49127,0 -0.31185,4.061368 -4.71902,4.061368 h -4.741041 c -0.868285,0 -2.065785,-0.200345 -2.065785,-1.736089 v -0.819236 c 0,-1.384327 0.429544,-1.506043 0.796875,-1.506043 z"
   class="st4" /><path
   style="fill:#c3c6c4;stroke-width:0.60109735"
   inkscape:connector-curvature="0"
   id="path289"
   d="m 125.42689,81.855152 c 5.28262,-3.679503 5.74997,-5.749496 2.54487,-10.891163 l -5.1695,-7.382016 c -3.28596,-4.273568 -9.71463,-2.603719 -10.75586,-4.273568 -1.43674,-2.244491 -1.07753,-2.064937 5.67418,-3.106218 4.992,-0.807935 5.44324,-0.529393 7.36291,2.001888 l 9.83305,13.694741 c 1.66936,2.47075 0.53779,5.013759 -0.50482,5.877295 -1.77581,1.470825 -6.62247,3.189537 -8.98483,4.079041 z"
   class="st4" /><path
   style="fill:#c3c6c4;stroke-width:0.60109735"
   inkscape:connector-curvature="0"
   id="path291"
   d="m 104.46861,124.52975 c 1.31826,-6.05118 2.85918,-12.55818 9.81136,-16.23082 l 18.29691,-7.87937 c 3.64734,-1.603431 10.01651,-0.26701 6.10354,1.62754 l -22.43927,10.95818 c -6.15758,3.07875 -9.90055,7.01312 -11.77254,11.52447 z"
   class="st4" /><path
   style="fill:#c3c6c4;stroke-width:0.60109735"
   inkscape:connector-curvature="0"
   id="path293"
   d="m 130.40862,56.419838 c -1.65748,-0.674666 -0.25471,-2.103895 1.54823,-1.970277 l 4.60747,0.867925 c 2.80485,0.467353 3.87311,-0.200286 6.58467,-2.243897 -0.72951,1.763614 -2.78807,6.169062 -4.70402,6.007373 -1.8039,-0.152204 -5.17124,-1.478164 -8.03635,-2.661124 z"
   class="st4" /><path
   style="fill:#c3c6c4;stroke-width:0.60109735"
   inkscape:connector-curvature="0"
   id="path295"
   d="m 47.10751,80.200812 c -0.886679,-1.27919 -1.329988,-3.041258 -1.329988,-5.173399 V 54.800308 c 0,-0.228604 0.0069,-0.435327 0.02098,-0.622803 0,-1.802932 5.566817,-0.06672 5.566817,4.340283 v 17.731169 c 0,4.139992 -2.9033,5.675561 -4.257813,3.951855 z"
   class="st4" /><path
   style="fill:#c3c6c4;stroke-width:0.60109735"
   inkscape:connector-curvature="0"
   id="path297"
   d="m 84.275468,99.27363 c -3.898116,3.15582 -5.272525,3.53548 -7.20902,1.39875 L 64.692733,88.584196 c -3.586081,-4.714647 0.754383,-9.856373 6.363703,-4.514361 l 13.25606,11.863383 c 1.127598,1.152664 1.575596,2.034829 -0.03703,3.340412 z"
   class="st4" /><path
   style="fill:#c3c6c4;stroke-width:0.60109735"
   inkscape:connector-curvature="0"
   id="path299"
   d="m 91.241339,203.67131 c 0.76905,-1.44292 6.840428,-1.5575 4.964649,2.48217 l -4.905615,9.66655 c -3.462748,6.20399 -7.662735,6.60402 -16.448187,1.44264 5.172316,1.79734 10.085445,-0.48797 12.854947,-5.57091 z"
   class="st4" /><path
   style="fill:#c3c6c4;stroke-width:0.60109735"
   inkscape:connector-curvature="0"
   id="path301"
   d="m 125.07819,177.86067 c 3.89559,0 -5.48279,4.48721 -16.01557,4.48721 h -5.35385 c -5.4828,0 -7.502782,1.73138 -7.502782,7.21382 0,5.04296 -2.448275,8.04575 -9.721974,12.17775 0.978292,-3.23294 0.837629,-7.07491 0.837629,-10.38541 0,-9.81213 3.247369,-13.49348 14.627767,-13.49348 z"
   class="st4" /><path
   style="fill:#c3c6c4;stroke-width:0.60109735"
   inkscape:connector-curvature="0"
   id="path303"
   d="m 163.1142,232.06115 -9.08072,13.5137 c -4.5181,5.81447 -4.75764,7.01498 -16.81259,9.20214 3.94843,-1.88706 7.05917,-4.89716 8.72608,-8.29903 l 10.73025,-18.94645 c 2.68527,-5.01297 10.02648,-1.74576 6.43698,4.52964 z"
   class="st4" /><path
   style="fill:#c3c6c4;stroke-width:0.60109735"
   inkscape:connector-curvature="0"
   id="path305"
   d="m 149.45661,159.73392 c 6.41496,12.51726 6.32546,14.30774 3.40298,19.88569 l -13.54983,25.03889 c -1.32179,2.5995 -0.25276,5.76032 0.81846,8.94716 1.86737,5.55545 2.22533,6.62979 1.59874,9.04681 l -7.69903,-13.15977 c -3.04371,-5.46091 -1.48994,-9.49949 1.6461,-15.31613 3.86656,-7.17219 10.63246,-18.01723 13.62303,-25.40298 1.36077,-3.36032 1.11223,-6.56532 0.15955,-9.03967 z"
   class="st4" /><path
   style="fill:#c3c6c4;stroke-width:0.60109735"
   inkscape:connector-curvature="0"
   id="path307"
   d="m 96.152424,137.41326 c 6.470876,0 3.821657,6.58327 -6.247318,6.58327 H 79.183567 c -21.167036,0 -36.614456,-6.59139 -28.426669,-6.59139 0.165482,0.005 45.395526,0.008 45.395526,0.008 z"
   class="st4" /><path
   style="fill:#c3c6c4;stroke-width:0.60109735"
   inkscape:connector-curvature="0"
   id="path309"
   d="m 48.254103,162.05002 c 1.398393,-3.49594 6.143401,-5.22402 5.104338,-2.65686 -3.566064,8.8098 -2.943567,10.3515 -10.463535,10.3515 2.936721,-0.83907 3.04371,-1.79048 5.359197,-7.69464 z"
   class="st4" /><path
   style="fill:#c3c6c4;stroke-width:0.60109735"
   inkscape:connector-curvature="0"
   id="path311"
   d="m 42.997693,135.99455 c 1.538449,1.53808 -2.954153,2.9542 -6.176996,0.71626 -6.087614,-3.93905 -5.99805,-4.20768 -10.474121,-3.58091 5.818862,-5.28191 8.325558,-2.14863 16.651117,2.86465 z"
   class="st4" /><path
   style="fill:#c3c6c4;stroke-width:0.60109735"
   inkscape:connector-curvature="0"
   id="path313"
   d="m 35.71071,151.99677 c -2.775272,0 -5.604451,0 -9.332757,-1.0025 2.564522,-1.21326 6.849017,-2.69045 10.004183,-2.69045 3.328877,0 2.954219,3.69295 -0.671426,3.69295 z"
   class="st4" /><path
   style="fill:#c3c6c4;stroke-width:0.60109735"
   inkscape:connector-curvature="0"
   id="path315"
   d="m 111.47043,142.3645 c -1.52185,-1.59345 -2.93919,-4.28823 -2.93919,-8.68135 0,-8.25326 6.78633,-14.98181 15.20602,-14.98181 4.87467,0 9.83306,3.043 13.08192,4.16969 10.99528,3.81312 25.40407,0.52842 32.98888,-9.90446 1.87278,-2.57613 6.34838,-12.01371 0.3864,-13.312445 -6.20622,-1.352048 -10.82149,-6.805438 -10.82149,-13.293809 0,-4.366731 2.12702,-8.292805 5.38762,-10.789823 0.36576,-0.31887 62.43009,-47.182234 62.43009,-47.182234 -1.33858,5.189706 -4.29201,7.532176 -9.94179,11.910443 0,0 -29.48846,22.797224 -38.95201,29.717657 -5.9493,4.350569 -9.7421,7.981191 -11.01114,11.414118 -2.1167,5.725145 1.74558,9.131335 5.90837,8.594189 4.69168,-0.605486 7.11718,2.838075 7.11718,7.756199 0,20.712065 -18.26272,32.797615 -38.53961,30.380425 -9.34405,-1.11389 -9.23495,-3.06854 -15.57695,-3.49135 -8.05699,-0.53721 -10.07138,7.25132 -7.78841,11.54834 3.26749,6.15061 -2.41714,10.87715 -6.93589,6.14622 z"
   class="st4" /><path
   style="fill:#c3c6c4;stroke-width:0.60109735"
   inkscape:connector-curvature="0"
   id="path317"
   d="m 114.28399,149.5782 c 3.91579,0 3.0053,0.97877 1.99299,3.04876 l -4.87532,9.28324 c -1.75184,3.10732 -2.44916,4.03774 -4.61932,4.56587 -4.58047,1.11498 -11.020569,0.56846 -15.768035,0.56611 8.064628,-1.84482 11.469955,-3.21653 14.753515,-8.25072 l 2.89699,-5.57752 c 1.14456,-2.12325 1.42375,-3.63574 5.61918,-3.63574 z"
   class="st4" /><path
   style="fill:#c3c6c4;stroke-width:0.60109735"
   inkscape:connector-curvature="0"
   id="path319"
   d="m 234.49005,21.071167 c 3.44934,26.18374 -0.37785,36.590839 -16.22319,45.319247 L 194.29713,79.95316 c -1.61154,1.007012 -1.68919,0.962657 -2.01434,-1.275769 -0.51675,-3.558737 -1.76596,-3.692481 -0.14035,-5.035447 l 28.4964,-20.372878 c 7.65733,-5.722927 10.07452,-8.050557 13.85121,-32.197899 z"
   class="st4" /><path
   style="fill:#c3c6c4;stroke-width:0.60109735"
   inkscape:connector-curvature="0"
   id="path321"
   d="m 237.29639,75.96536 c -5.43963,24.10376 -12.71207,25.76111 -25.20997,27.49389 l -14.07853,1.38264 c -2.40998,0.3219 -2.11923,-0.0337 -1.15934,-2.39621 1.74559,-4.296997 0.13417,-5.10278 2.14838,-5.572772 l 17.49465,-3.807231 c 7.11301,-1.703095 13.62488,-4.207681 20.80481,-17.100317 z"
   class="st4" /><path
   style="fill:#c3c6c4;stroke-width:0.60109735"
   inkscape:connector-curvature="0"
   id="path323"
   d="m 184.96438,122.11839 c 3.96134,-2.41719 2.68558,-3.35718 4.29761,-2.96388 l 13.30419,3.2648 c 8.96194,2.27479 13.2616,0.77764 23.88215,-5.3895 -9.25287,13.65416 -19.06844,16.31005 -29.09619,12.52523 -1.10612,-0.41751 -8.30373,-2.96094 -12.68778,-4.67635 -3.02574,-1.07206 -2.5112,-1.04518 0.30002,-2.7603 z"
   class="st4" /><path
   style="fill:#c3c6c4;stroke-width:0.60109735"
   inkscape:connector-curvature="0"
   id="path325"
   d="m 169.99165,135.3453 c 1.2183,-0.58998 2.2053,-0.21981 3.22795,0.65766 l 8.30818,5.55125 c 6.63294,4.62299 10.61935,4.10748 21.83985,4.10748 -12.82339,7.91447 -24.64499,6.11117 -32.7598,-2.20397 -0.72012,-0.73791 -3.38923,-3.15439 -4.70857,-4.50823 -0.86674,-0.88969 -1.56286,-1.88649 -0.16399,-2.23015 0.73623,-0.18074 1.90471,-0.37087 2.79324,-0.72996 0.52675,-0.21297 1.01111,-0.42516 1.46314,-0.64408 z"
   class="st4" /><path
   style="fill:#c3c6c4;stroke-width:0.60109735"
   inkscape:connector-curvature="0"
   id="path327"
   d="m 222.05773,177.6087 c 2.12031,-18.24865 -5.75761,-24.78397 -0.9234,-28.36489 1.67965,-1.0378 3.58091,-2.32744 7.07233,-4.3865 -0.55048,1.34218 -1.03816,4.12917 -1.2533,5.99793 -0.4353,3.78041 -1.75345,15.11987 -1.75345,15.11987 -0.41421,2.80502 -1.36545,7.34981 -3.14218,11.63359 z"
   class="st4" /><path
   style="fill:#c3c6c4;stroke-width:0.60109735"
   inkscape:connector-curvature="0"
   id="path329"
   d="m 157.3977,144.54744 22.83845,33.67246 c 10.20224,15.09288 24.78907,10.43684 28.382,4.41655 4.60779,-7.72055 0.78859,-13.56509 -4.31407,-14.77178 -3.0617,-0.72409 -6.49011,0.29501 -9.10428,3.37389 -1.01171,1.19169 -0.65376,-3.73203 2.7481,-6.14921 5.22587,-3.71311 12.05525,-2.26512 15.4102,1.96486 3.4547,4.35572 4.27825,11.48319 0.17956,18.23392 -6.09171,10.03292 -25.14036,13.53293 -38.0018,-3.71947 l -24.77518,-37.16542 c -1.62014,-2.38251 5.01682,-2.23813 6.63702,0.1442 z"
   class="st4" /><path
   style="fill:#c3c6c4;stroke-width:0.60109735"
   inkscape:connector-curvature="0"
   id="path331"
   d="m 67.060876,212.35736 c 4.843534,3.47158 -2.5011,4.14028 -5.92453,1.78687 -3.396386,-2.33453 -6.144296,-2.8989 -10.02991,0.4792 3.503857,-8.94931 8.090885,-7.53211 15.95444,-2.26607 z"
   class="st4" /><path
   style="fill:#c3c6c4;stroke-width:0.60109735"
   inkscape:connector-curvature="0"
   id="path333"
   d="m 122.55317,257.03191 c 3.61498,-0.0957 -0.59172,3.6625 -6.18638,3.69442 -4.01978,0 -6.30305,0.15904 -6.8298,5.58227 -3.08999,-8.51303 -0.89779,-10.61273 13.01618,-9.27669 z"
   class="st4" /><path
   style="fill:#c3c6c4;stroke-width:0.60109735"
   inkscape:connector-curvature="0"
   id="path335"
   d="m 56.744669,199.80524 c -4.833544,-3.75103 -6.709214,-2.30827 -8.584938,-1.00985 2.813562,-4.4004 7.358519,-6.27606 13.995355,0.64925 1.951403,2.03592 -3.102023,2.3084 -5.410417,0.3606 z"
   class="st4" /><path
   style="fill:#c3c6c4;stroke-width:0.60109735"
   inkscape:connector-curvature="0"
   id="path337"
   d="m 68.434744,227.69477 c -5.990897,0.8217 -6.504769,2.67188 -7.145244,4.86137 -1.154407,-6.20399 1.87561,-8.36805 11.831345,-8.51225 2.819627,-0.0409 -1.666122,3.71184 -4.686101,3.65088 z"
   class="st4" /><path
   style="fill:#c3c6c4;stroke-width:0.60109735"
   inkscape:connector-curvature="0"
   id="path339"
   d="m 128.29551,271.18686 c -4.7381,3.53795 -4.51124,4.6522 -2.33562,7.97063 -8.36416,-6.05969 -4.09059,-8.90544 4.40681,-13.70636 2.40674,-1.35985 0.55969,4.37204 -2.07119,5.73573 z"
   class="st4" /><path
   class="st4"
   d="m 52.669043,31.735596 c -1.558225,-3.599966 -2.871502,-5.936798 -2.779047,-9.453819 0.117514,-4.470487 5.913715,-5.35157 5.783872,0.512015 -0.06684,3.014803 -1.324031,5.501243 -3.004825,8.941804 z"
   id="path343"
   inkscape:connector-curvature="0"
   style="fill:#c3c6c4;stroke-width:0.60109735" /><path
   class="st4"
   d="m 62.88572,31.668753 c -1.201894,-2.804365 -2.223399,-4.661089 -1.724975,-8.346236 0.523081,-3.86728 4.729975,-2.932459 4.663259,0.139094 -0.07688,3.538419 -1.335825,5.680911 -2.938284,8.207142 z"
   id="path345"
   inkscape:connector-curvature="0"
   style="fill:#c3c6c4;stroke-width:0.60109735" /><path
   class="st4"
   d="m 42.986327,31.001115 c -2.082202,-3.112663 -2.741239,-4.36782 -3.205286,-6.871685 -0.717049,-3.868909 4.17197,-4.337038 4.4073,-0.267062 0.170297,2.945131 -0.530769,4.901402 -1.202014,7.138747 z"
   id="path347"
   inkscape:connector-curvature="0"
   style="fill:#c3c6c4;stroke-width:0.60109735" /><path
   style="fill:#c1852a;stroke-width:0.60109735"
   inkscape:connector-curvature="0"
   id="path353"
   d="m 96.263627,29.462486 c -13.268316,-4.162239 -16.243453,-0.44373 -16.243453,-4.187124 0.421676,-5.981099 1.67839,-6.850286 3.167482,-6.749355 6.002739,0.406876 7.354907,2.445137 14.602104,2.915616 6.19635,0.402495 8.83948,-2.445745 16.32851,-2.445745 7.52351,0 11.76064,3.814029 19.11423,4.016166 7.16574,0.196926 10.51962,-2.728555 18.04127,-2.878829 12.47572,-0.249576 10.39635,4.852592 25.84628,2.878829 11.87492,-1.516983 20.0885,-0.392631 29.04486,5.699377 -7.68059,4.242479 -13.1415,5.29259 -22.53911,5.29259 -8.32792,0 -9.01479,2.224727 -16.56397,2.093928 -7.21527,-0.125154 -7.65918,-2.224667 -15.14837,-2.224667 -7.52351,0 -11.88129,4.156053 -19.06488,4.401836 -7.22242,0.247363 -9.74992,-2.831517 -17.2735,-2.831517 -7.48901,0 -11.57665,4.318217 -17.78532,4.318217 -6.127352,0 -5.227023,-1.249501 -10.236213,-1.439328 -2.111114,-0.08001 -3.409965,0.230882 -4.443246,0.642459 -1.587023,0.631747 -2.446105,0.175815 -3.057968,-5.091667 -0.574463,-4.452496 -1.277981,-4.410786 16.211294,-4.410786 z M 80.237176,15.466054 c -2.0786,2.89542 -2.817169,7.390065 -2.817169,13.910962 0,6.521052 1.354032,11.267443 2.817169,13.91119 l -6.263735,1.258878 c -3.077444,0.629709 -4.43147,-9.767411 -4.43147,-15.170068 0,-5.402429 1.107943,-16.051289 4.43147,-15.42176 z M 28.423433,30.970765 c 0,-3.18685 2.024189,-5.890279 4.829805,-6.83857 1.278113,-0.431227 1.910294,-0.31203 3.581885,5.496079 2.261208,7.85826 1.622302,8.543698 -1.370802,8.543698 -3.888559,0 -7.040888,-3.224046 -7.040888,-7.201207 z"
   class="st1" /><path
   class="st2"
   d="m 106.91688,29.462486 c -10.384622,0 -12.443675,-3.869023 -23.962209,-3.869023 -0.477506,0 -0.03793,-2.089409 0.141138,-2.805682 0.551873,-2.207476 0.849951,-2.575702 6.888816,-0.880247 12.480585,3.503736 12.998975,-1.218244 23.825465,-1.218244 5.22155,0 10.09104,2.869338 14.98445,3.573584 9.73964,1.401819 13.56665,-2.471887 22.32116,-2.471887 4.53616,0 8.12802,1.237653 12.41192,2.292038 7.68545,1.891233 13.29495,-0.262673 20.5419,-0.424248 5.21169,-0.116258 13.30073,0.521866 20.14428,4.98796 -1.36846,0.636688 -4.10375,0.815749 -7.41605,0.815749 z m -30.7278,0.03252 0.0012,0.310166 c 0,0.868105 -4.699493,1.669188 -4.699493,0 l -0.0061,-0.310166 c 0,-4.230469 0.749983,-13.712419 3.487747,-13.044594 l 3.160149,0.634639 C 76.661723,20.209608 76.1892,24.359115 76.1892,29.495005 Z m -46.329277,1.40747 c 0,-2.334963 1.116725,-3.891985 2.769556,-4.927911 1.131873,-0.574354 2.544211,0.759054 1.027642,2.089649 -0.87123,0.663011 -1.419852,1.696597 -1.419852,2.838262 0,1.685651 1.202309,3.138154 2.85719,3.504517 1.881982,0.472817 1.748538,2.275755 0.01232,2.209093 -3.021236,-0.338598 -5.246865,-2.650478 -5.246865,-5.71361 z"
   id="path355"
   inkscape:connector-curvature="0"
   style="fill:#d8a743;stroke-width:0.60109735" />
</svg>